<mxfile host="app.diagrams.net" agent="Mozilla/5.0 (Windows NT 10.0; Win64; x64; rv:132.0) Gecko/20100101 Firefox/132.0" version="24.8.3">
  <diagram name="ページ1" id="mFCfNckq25cNWK1LvRHe">
    <mxGraphModel dx="1434" dy="746" grid="1" gridSize="10" guides="1" tooltips="1" connect="1" arrows="1" fold="1" page="1" pageScale="1" pageWidth="827" pageHeight="1169" math="0" shadow="0">
      <root>
        <mxCell id="0" />
        <mxCell id="1" parent="0" />
        <mxCell id="3UyvvyPKQyE1Q1xAVk2x-6" style="edgeStyle=orthogonalEdgeStyle;rounded=0;orthogonalLoop=1;jettySize=auto;html=1;entryX=0;entryY=0.5;entryDx=0;entryDy=0;" edge="1" parent="1" source="3UyvvyPKQyE1Q1xAVk2x-1" target="3UyvvyPKQyE1Q1xAVk2x-5">
          <mxGeometry relative="1" as="geometry" />
        </mxCell>
        <mxCell id="3UyvvyPKQyE1Q1xAVk2x-1" value="Player1" style="shape=umlActor;verticalLabelPosition=bottom;verticalAlign=top;html=1;outlineConnect=0;" vertex="1" parent="1">
          <mxGeometry x="110" y="260" width="30" height="60" as="geometry" />
        </mxCell>
        <mxCell id="3UyvvyPKQyE1Q1xAVk2x-7" style="edgeStyle=orthogonalEdgeStyle;rounded=0;orthogonalLoop=1;jettySize=auto;html=1;entryX=1;entryY=0.5;entryDx=0;entryDy=0;" edge="1" parent="1" source="3UyvvyPKQyE1Q1xAVk2x-2" target="3UyvvyPKQyE1Q1xAVk2x-5">
          <mxGeometry relative="1" as="geometry" />
        </mxCell>
        <mxCell id="3UyvvyPKQyE1Q1xAVk2x-2" value="&lt;div&gt;Player2&lt;/div&gt;" style="shape=umlActor;verticalLabelPosition=bottom;verticalAlign=top;html=1;outlineConnect=0;" vertex="1" parent="1">
          <mxGeometry x="590" y="260" width="30" height="60" as="geometry" />
        </mxCell>
        <mxCell id="3UyvvyPKQyE1Q1xAVk2x-3" value="リバーシ（提供システム）" style="swimlane;whiteSpace=wrap;html=1;" vertex="1" parent="1">
          <mxGeometry x="230" y="190" width="250" height="260" as="geometry" />
        </mxCell>
        <mxCell id="3UyvvyPKQyE1Q1xAVk2x-9" style="edgeStyle=orthogonalEdgeStyle;rounded=0;orthogonalLoop=1;jettySize=auto;html=1;entryX=0.5;entryY=0;entryDx=0;entryDy=0;" edge="1" parent="3UyvvyPKQyE1Q1xAVk2x-3" source="3UyvvyPKQyE1Q1xAVk2x-5" target="3UyvvyPKQyE1Q1xAVk2x-8">
          <mxGeometry relative="1" as="geometry" />
        </mxCell>
        <mxCell id="3UyvvyPKQyE1Q1xAVk2x-5" value="ゲーム盤上で互いに駒を配置" style="ellipse;whiteSpace=wrap;html=1;" vertex="1" parent="3UyvvyPKQyE1Q1xAVk2x-3">
          <mxGeometry x="65" y="60" width="120" height="80" as="geometry" />
        </mxCell>
        <mxCell id="3UyvvyPKQyE1Q1xAVk2x-8" value="勝敗を判定して表示" style="ellipse;whiteSpace=wrap;html=1;" vertex="1" parent="3UyvvyPKQyE1Q1xAVk2x-3">
          <mxGeometry x="65" y="160" width="120" height="80" as="geometry" />
        </mxCell>
      </root>
    </mxGraphModel>
  </diagram>
</mxfile>
